<?xml version="1.0" encoding="UTF-8" standalone="no" ?>
<!DOCTYPE svg PUBLIC "-//W3C//DTD SVG 1.1//EN" "http://www.w3.org/Graphics/SVG/1.1/DTD/svg11.dtd">
<svg xmlns="http://www.w3.org/2000/svg" xmlns:xlink="http://www.w3.org/1999/xlink" version="1.1" width="1080" height="1080" viewBox="0 0 1080 1080" xml:space="preserve">
<desc>Created with Fabric.js 5.2.4</desc>
<defs>
</defs>
<g transform="matrix(1 0 0 1 540 540)" id="d8123fdf-42d3-4584-a906-1d8336dcfe97"  >
<rect style="stroke: none; stroke-width: 1; stroke-dasharray: none; stroke-linecap: butt; stroke-dashoffset: 0; stroke-linejoin: miter; stroke-miterlimit: 4; fill: rgb(255,255,255); fill-rule: nonzero; opacity: 1; visibility: hidden;" vector-effect="non-scaling-stroke"  x="-540" y="-540" rx="0" ry="0" width="1080" height="1080" />
</g>
<g transform="matrix(1 0 0 1 540 540)" id="507ab88c-5a1d-4815-93c6-e05678efdc16"  >
</g>
<g transform="matrix(1.39 0 0 1.38 540 540.25)"  >
<g style="opacity: 1;" vector-effect="non-scaling-stroke"   >
		<g transform="matrix(0.1 0 0 0.1 0 0)"  >
<path style="stroke: none; stroke-width: 1; stroke-dasharray: none; stroke-linecap: butt; stroke-dashoffset: 0; stroke-linejoin: miter; stroke-miterlimit: 4; fill: rgb(5,7,253); fill-rule: nonzero; opacity: 1;" vector-effect="non-scaling-stroke"  transform=" translate(-29.5, -386.5)" d="M 0 0 L 47 0 L 71 2 L 98 6 L 126 12 L 161 22 L 185 31 L 214 45 L 234 56 L 252 68 L 268 80 L 279 89 L 292 100 L 315 123 L 324 134 L 336 149 L 348 166 L 358 182 L 370 203 L 380 224 L 391 252 L 399 278 L 406 306 L 411 339 L 414 373 L 414 414 L 411 443 L 407 467 L 401 492 L 394 516 L 383 545 L 368 576 L 357 594 L 349 606 L 339 620 L 328 634 L 318 645 L 317 647 L 315 647 L 313 651 L 294 670 L 286 677 L 273 688 L 255 701 L 240 711 L 221 722 L 200 733 L 178 743 L 138 757 L 117 763 L 85 769 L 60 772 L 38 773 L 12 773 L -13 771 L -43 766 L -67 761 L -96 752 L -129 740 L -154 728 L -175 716 L -196 702 L -212 690 L -225 679 L -240 665 L -253 652 L -260 644 L -271 631 L -283 615 L -293 600 L -305 580 L -317 557 L -329 529 L -339 499 L -346 471 L -350 451 L -354 415 L -355 399 L -355 356 L -351 321 L -346 295 L -337 263 L -330 243 L -323 226 L -313 204 L -302 185 L -290 166 L -280 152 L -269 139 L -260 128 L -253 121 L -246 113 L -237 104 L -229 97 L -219 88 L -207 79 L -190 67 L -173 56 L -157 47 L -129 33 L -101 22 L -76 14 L -52 8 L -25 3 z M 14 43 L -4 44 L -11 45 L -12 47 L -12 129 L -3 129 L 29 127 L 50 127 L 51 170 L 17 170 L -11 173 L -12 211 L -12 237 L -4 236 L 16 233 L 42 233 L 63 236 L 71 238 L 71 45 L 65 44 L 44 43 z M -59 55 L -86 63 L -115 75 L -135 85 L -155 97 L -170 107 L -187 120 L -197 129 L -205 136 L -223 154 L -230 162 L -242 176 L -255 195 L -267 214 L -279 236 L -291 264 L -301 294 L -307 319 L -311 344 L -312 353 L -312 365 L -231 365 L -229 363 L -226 342 L -219 311 L -213 294 L -205 276 L -193 253 L -183 238 L -171 222 L -159 208 L -147 196 L -136 187 L -121 175 L -99 161 L -84 153 L -80 151 L -77 151 L -77 197 L -86 203 L -100 213 L -113 224 L -129 239 L -138 249 L -149 264 L -159 280 L -167 295 L -177 321 L -182 340 L -185 356 L -185 364 L -184 365 L -125 365 L -122 360 L -118 342 L -112 326 L -104 310 L -97 299 L -88 287 L -76 274 L -65 265 L -56 258 L -55 251 L -55 55 z M 115 55 L 115 141 L 127 146 L 147 155 L 168 167 L 180 175 L 193 185 L 204 195 L 212 202 L 222 212 L 231 223 L 241 236 L 252 253 L 262 271 L 270 289 L 280 319 L 286 348 L 289 364 L 290 365 L 368 365 L 371 364 L 370 348 L 365 315 L 360 295 L 352 269 L 341 243 L 333 227 L 321 205 L 311 190 L 302 178 L 294 168 L 285 158 L 278 150 L 258 130 L 247 121 L 237 113 L 223 103 L 204 91 L 188 82 L 163 70 L 139 61 L 119 55 z M 115 188 L 115 257 L 120 262 L 129 269 L 139 278 L 147 286 L 160 304 L 168 318 L 176 338 L 180 352 L 182 363 L 184 365 L 244 365 L 244 356 L 239 332 L 233 312 L 224 291 L 213 271 L 201 254 L 189 240 L 172 223 L 158 212 L 140 200 L 124 191 z M 27 275 L 9 277 L -10 282 L -26 290 L -38 298 L -50 309 L -60 320 L -69 335 L -74 346 L -79 361 L -78 365 L 138 365 L 137 357 L 130 338 L 122 324 L 114 314 L 106 305 L 93 295 L 80 287 L 59 279 L 44 276 z M -312 408 L -313 410 L -309 440 L -303 471 L -295 498 L -284 525 L -275 544 L -262 567 L -248 588 L -238 601 L -227 614 L -219 622 L -212 630 L -197 644 L -186 653 L -172 664 L -153 677 L -132 689 L -106 702 L -86 710 L -60 718 L -55 718 L -55 633 L -59 630 L -85 619 L -105 608 L -119 599 L -132 589 L -147 576 L -165 558 L -173 548 L -187 529 L -198 510 L -206 494 L -216 469 L -222 448 L -225 432 L -225 430 L -183 430 L -175 458 L -165 482 L -154 502 L -141 520 L -128 535 L -117 546 L -106 555 L -96 563 L -82 572 L -64 582 L -56 585 L -55 582 L -55 515 L -68 505 L -78 496 L -86 488 L -96 475 L -104 462 L -112 447 L -118 429 L -123 409 L -124 408 z M -79 408 L -77 418 L -69 438 L -59 454 L -47 467 L -35 477 L -22 485 L -8 491 L 5 495 L 18 497 L 115 498 L 115 718 L 122 717 L 155 706 L 184 693 L 204 682 L 228 666 L 244 654 L 258 642 L 271 630 L 283 618 L 292 607 L 304 592 L 318 572 L 330 552 L 342 529 L 353 502 L 361 476 L 366 454 L 371 421 L 371 408 z M -11 536 L -12 722 L -11 727 L -7 728 L 13 729 L 47 729 L 67 728 L 71 727 L 72 652 L 71 643 L 57 644 L 46 645 L 11 645 L 10 644 L 9 602 L 48 602 L 67 600 L 71 598 L 72 591 L 72 546 L 71 539 L 4 538 L -7 536 z" stroke-linecap="round" />
</g>
		<g transform="matrix(0.1 0 0 0.1 17.72 13.53)"  >
<path style="stroke: none; stroke-width: 1; stroke-dasharray: none; stroke-linecap: butt; stroke-dashoffset: 0; stroke-linejoin: miter; stroke-miterlimit: 4; fill: rgb(5,7,253); fill-rule: nonzero; opacity: 1;" vector-effect="non-scaling-stroke"  transform=" translate(56, -97)" d="M 0 0 L 19 1 L 18 8 L 13 30 L 4 56 L -8 81 L -18 98 L -30 115 L -42 129 L -49 137 L -65 153 L -75 161 L -94 175 L -115 187 L -128 194 L -131 193 L -131 147 L -122 140 L -110 132 L -99 123 L -84 110 L -74 99 L -63 85 L -54 72 L -44 54 L -34 31 L -27 7 L -25 1 z" stroke-linecap="round" />
</g>
		<g transform="matrix(0.1 0 0 0.1 -26.51 -26.81)"  >
<path style="stroke: none; stroke-width: 1; stroke-dasharray: none; stroke-linecap: butt; stroke-dashoffset: 0; stroke-linejoin: miter; stroke-miterlimit: 4; fill: rgb(139,140,253); fill-rule: nonzero; opacity: 1;" vector-effect="non-scaling-stroke"  transform=" translate(19, -20)" d="M 0 0 M -1 1 M -2 2 M -3 3 M -5 4 L -3 5 L -38 40 L -38 37 L -30 29 L -23 21 L -14 12 L -6 5 z" stroke-linecap="round" />
</g>
</g>
</g>
</svg>