
<svg version="1.1" viewBox="0 0 2048 1627" width="200" height="200" xmlns="http://www.w3.org/2000/svg">
<path transform="translate(995,422)" d="m0 0h47l24 2 27 4 28 6 35 10 24 9 29 14 20 11 18 12 16 12 11 9 13 11 23 23 9 11 12 15 12 17 10 16 12 21 10 21 11 28 8 26 7 28 5 33 3 34v41l-3 29-4 24-6 25-7 24-11 29-15 31-11 18-8 12-10 14-11 14-10 11-1 2h-2l-2 4-19 19-8 7-13 11-18 13-15 10-19 11-21 11-22 10-40 14-21 6-32 6-25 3-22 1h-26l-25-2-30-5-24-5-29-9-33-12-25-12-21-12-21-14-16-12-13-11-15-14-13-13-7-8-11-13-12-16-10-15-12-20-12-23-12-28-10-30-7-28-4-20-4-36-1-16v-43l4-35 5-26 9-32 7-20 7-17 10-22 11-19 12-19 10-14 11-13 9-11 7-7 7-8 9-9 8-7 10-9 12-9 17-12 17-11 16-9 28-14 28-11 25-8 24-6 27-5zm14 43-18 1-7 1-1 2v82h9l32-2h21l1 43h-34l-28 3-1 38v26l8-1 20-3h26l21 3 8 2v-193l-6-1-21-1zm-73 12-27 8-29 12-20 10-20 12-15 10-17 13-10 9-8 7-18 18-7 8-12 14-13 19-12 19-12 22-12 28-10 30-6 25-4 25-1 9v12h81l2-2 3-21 7-31 6-17 8-18 12-23 10-15 12-16 12-14 12-12 11-9 15-12 22-14 15-8 4-2h3v46l-9 6-14 10-13 11-16 15-9 10-11 15-10 16-8 15-10 26-5 19-3 16v8l1 1h59l3-5 4-18 6-16 8-16 7-11 9-12 12-13 11-9 9-7 1-7v-196zm174 0v86l12 5 20 9 21 12 12 8 13 10 11 10 8 7 10 10 9 11 10 13 11 17 10 18 8 18 10 30 6 29 3 16 1 1h78l3-1-1-16-5-33-5-20-8-26-11-26-8-16-12-22-10-15-9-12-8-10-9-10-7-8-20-20-11-9-10-8-14-10-19-12-16-9-25-12-24-9-20-6zm0 133v69l5 5 9 7 10 9 8 8 13 18 8 14 8 20 4 14 2 11 2 2h60v-9l-5-24-6-20-9-21-11-20-12-17-12-14-17-17-14-11-18-12-16-9zm-88 87-18 2-19 5-16 8-12 8-12 11-10 11-9 15-5 11-5 15 1 4h216l-1-8-7-19-8-14-8-10-8-9-13-10-13-8-21-8-15-3zm-339 133-1 2 4 30 6 31 8 27 11 27 9 19 13 23 14 21 10 13 11 13 8 8 7 8 15 14 11 9 14 11 19 13 21 12 26 13 20 8 26 8h5v-85l-4-3-26-11-20-11-14-9-13-10-15-13-18-18-8-10-14-19-11-19-8-16-10-25-6-21-3-16v-2h42l8 28 10 24 11 20 13 18 13 15 11 11 11 9 10 8 14 9 18 10 8 3 1-3v-67l-13-10-10-9-8-8-10-13-8-13-8-15-6-18-5-20-1-1zm233 0 2 10 8 20 10 16 12 13 12 10 13 8 14 6 13 4 13 2 97 1v220l7-1 33-11 29-13 20-11 24-16 16-12 14-12 13-12 12-12 9-11 12-15 14-20 12-20 12-23 11-27 8-26 5-22 5-33v-13zm68 128-1 186 1 5 4 1 20 1h34l20-1 4-1 1-75-1-9-14 1-11 1h-35l-1-1-1-42h39l19-2 4-2 1-7v-45l-1-7-67-1-11-2z" fill="#0507FD"/>
<path transform="translate(1262,850)" d="m0 0 19 1-1 7-5 22-9 26-12 25-10 17-12 17-12 14-7 8-16 16-10 8-19 14-21 12-13 7-3-1v-46l9-7 12-8 11-9 15-13 10-11 11-14 9-13 10-18 10-23 7-24 2-6z" fill="#0507FD"/>
<path transform="translate(772,514)" d="m0 0m-1 1m-1 1m-1 1m-2 1 2 1-35 35v-3l8-8 7-8 9-9 8-7z" fill="#8B8CFD"/>
</svg>
